Coordinates
version=1
nRows=14
nColumns=40
inDegrees=yes

Units are S.I. units (second, meters, Newtons, ...)
Angles are in degrees.

endheader
time	pelvis_tilt	pelvis_list	pelvis_rotation	pelvis_tx	pelvis_ty	pelvis_tz	hip_flexion_r	hip_adduction_r	hip_rotation_r	knee_angle_r	knee_angle_r_beta	ankle_angle_r	subtalar_angle_r	mtp_angle_r	hip_flexion_l	hip_adduction_l	hip_rotation_l	knee_angle_l	knee_angle_l_beta	ankle_angle_l	subtalar_angle_l	mtp_angle_l	lumbar_extension	lumbar_bending	lumbar_rotation	arm_flex_r	arm_add_r	arm_rot_r	elbow_flex_r	pro_sup_r	wrist_flex_r	wrist_dev_r	arm_flex_l	arm_add_l	arm_rot_l	elbow_flex_l	pro_sup_l	wrist_flex_l	wrist_dev_l
     41.31250000	      0.84699013	     -5.79993623	     -0.89719179	      0.98058632	      0.91094884	      0.58336512	     11.21802573	      7.01999386	    -10.86356859	     32.16306528	     32.16306528	     21.21270073	     -7.40529516	      0.41362821	     24.58044980	    -18.43065709	     -3.81112206	     60.77660480	     60.77660480	     18.82946579	    -19.63070774	     23.80081623	    -11.86135453	      8.23710256	      0.65975197	     15.35028058	    -16.03927555	    -26.53188321	     25.70363016	     47.48085606	      0.00000000	      0.00000000	      4.25105213	     -8.01217477	      1.72235780	     28.71516733	     45.99046929	      0.00000000	      0.00000000
     41.33157143	      0.86223888	     -5.68585182	     -0.49974808	      0.97879159	      0.91092970	      0.58362010	     10.77736478	      6.95490555	    -11.03345385	     31.88521029	     31.88521029	     21.46871953	     -7.47387925	      0.39427839	     25.38923048	    -18.14356786	     -3.84343963	     58.32778089	     58.32778089	     19.13050422	    -19.61300786	     23.58046582	    -11.84008024	      8.04039155	      0.77899327	     17.63430073	    -15.83256559	    -26.38585168	     26.71840771	     47.43521122	      0.00000000	      0.00000000	      1.92844151	     -7.61903743	      2.31612710	     27.08690167	     45.85672431	      0.00000000	      0.00000000
     41.35064286	      0.78008242	     -5.55584232	     -0.11625368	      0.97686314	      0.91130124	      0.58359589	     10.33725950	      6.87182127	    -11.20684435	     31.39000576	     31.39000576	     21.60079344	     -7.46731556	      0.40140556	     26.18218640	    -17.64404747	     -3.64421115	     55.62487082	     55.62487082	     19.22623162	    -19.56883066	     23.33660789	    -11.69608218	      7.79088929	      1.23485970	     19.73641831	    -15.75205652	    -26.18394395	     27.73557966	     47.38575093	      0.00000000	      0.00000000	     -0.24298407	     -7.28495277	      2.75555767	     25.90129511	     45.74480228	      0.00000000	      0.00000000
     41.36971429	      0.64007300	     -5.35324056	      0.29007574	      0.97476312	      0.91215258	      0.58306883	      9.78458765	      6.68886493	    -11.43100869	     30.54135522	     30.54135522	     21.63971688	     -7.30655368	      0.36563760	     26.89548390	    -16.89925064	     -3.27345763	     52.68021448	     52.68021448	     18.91671962	    -19.52168246	     22.65056462	    -11.61664148	      7.59915221	      1.07420011	     22.27795024	    -15.46410943	    -25.70651863	     29.21756878	     47.29275393	      0.00000000	      0.00000000	     -2.62541623	     -7.04409508	      3.45802292	     24.74819040	     45.57544285	      0.00000000	      0.00000000
     41.38878571	      0.44972011	     -5.14373630	      0.69004700	      0.97261895	      0.91340274	      0.58234496	      9.18073404	      6.50240114	    -11.69465854	     29.48649433	     29.48649433	     21.54307312	     -7.06513327	      0.30433406	     27.50396805	    -16.00639271	     -2.67952649	     49.57533587	     49.57533587	     18.33169989	    -19.43933726	     21.79342590	    -11.45653329	      7.31955094	      1.23450809	     24.53034873	    -15.30633717	    -25.00368072	     30.81845739	     47.17675994	      0.00000000	      0.00000000	     -4.86054574	     -6.91977053	      4.11400514	     24.20704767	     45.40713825	      0.00000000	      0.00000000
     41.40785714	      0.14169063	     -4.94671517	      1.14763712	      0.97039621	      0.91474246	      0.58124269	      8.60101167	      6.31784605	    -12.03827470	     28.18641526	     28.18641526	     21.01071799	     -6.92764867	     -0.67270280	     28.11651095	    -15.02172460	     -1.88480659	     46.37357795	     46.37357795	     17.13146579	    -19.33033134	     19.71866793	    -11.20920808	      7.08315188	      1.61035930	     25.62407333	    -16.02153516	    -19.74800259	     34.11741470	     46.58880673	      0.00000000	      0.00000000	     -7.47960316	     -7.65252720	      9.29892568	     25.64492335	     44.48908178	      0.00000000	      0.00000000
     41.42692857	     -0.11614349	     -4.70477960	      1.55086411	      0.96818471	      0.91639134	      0.57992378	      7.91664168	      6.06063185	    -12.41297629	     26.84628624	     26.84628624	     20.82062767	     -6.38119430	     -0.63180769	     28.54852760	    -13.96500631	     -1.04529281	     43.24475934	     43.24475934	     16.07217513	    -19.15288769	     18.58998521	    -11.03988176	      6.81201893	      1.76252294	     27.79082638	    -15.79662095	    -19.53570283	     36.39384634	     46.48204082	      0.00000000	      0.00000000	     -9.57116303	     -7.71904919	      9.68868852	     25.76195189	     44.41538326	      0.00000000	      0.00000000
     41.44600000	     -0.37896384	     -4.49260925	      1.97621542	      0.96603760	      0.91809885	      0.57843282	      7.16670283	      5.84654241	    -12.85112728	     25.36404002	     25.36404002	     20.43583553	     -5.85704108	     -0.89127185	     28.83861521	    -12.94592661	     -0.16259733	     40.11693990	     40.11693990	     14.50412630	    -18.88604736	     16.42823637	    -10.88800785	      6.52663291	      2.17465655	     29.42541770	    -16.03528827	    -18.41523925	     39.41532759	     46.28439237	      0.00000000	      0.00000000	    -11.53649735	     -7.95072219	     10.21408870	     26.61383210	     44.34970381	      0.00000000	      0.00000000
     41.46507143	     -0.75506898	     -4.29481404	      2.40988505	      0.96393807	      0.91969447	      0.57671535	      6.52141885	      5.67149668	    -13.18465919	     23.84581931	     23.84581931	     20.11748486	     -5.45417821	     -0.61108022	     29.21798063	    -11.91118690	      0.82308896	     37.27590985	     37.27590985	     13.72810756	    -18.41073432	     16.62423130	    -10.55460400	      6.25018129	      2.58389194	     31.50175384	    -16.17410535	    -18.20599148	     40.83621439	     46.22872058	      0.00000000	      0.00000000	    -12.80048038	     -7.96262387	     10.31976506	     26.31077811	     44.31988766	      0.00000000	      0.00000000
     41.48414286	     -0.87759788	     -4.22470970	      2.90237398	      0.96206168	      0.92131076	      0.57485704	      5.52850710	      5.60135862	    -13.85097483	     22.23129828	     22.23129828	     19.81898579	     -4.55046758	     -0.58909678	     29.27773599	    -11.11426970	      1.68884880	     34.67984361	     34.67984361	     12.63428604	    -17.70148094	     15.92394099	    -10.57469074	      6.16076860	      2.43638935	     33.74818513	    -15.96983638	    -17.57877321	     43.45576872	     46.10379743	      0.00000000	      0.00000000	    -14.34616156	     -8.07639729	     10.41015932	     26.42863415	     44.29303378	      0.00000000	      0.00000000
     41.50321429	     -1.11825315	     -4.14182895	      3.35003285	      0.96033074	      0.92244798	      0.57290744	      4.74050221	      5.50711571	    -14.44310288	     20.78483216	     20.78483216	     19.50682708	     -3.72234193	     -0.67556414	     29.34868144	    -10.42891376	      2.22022110	     32.26466695	     32.26466695	     11.46226138	    -16.66433446	     14.84277766	    -10.43310619	      6.03271986	      2.52077374	     35.55825637	    -15.97364518	    -16.68865552	     46.29099066	     45.95896457	      0.00000000	      0.00000000	    -15.65438474	     -8.21840014	     10.39279249	     26.99501014	     44.28946398	      0.00000000	      0.00000000
     41.52228571	     -1.37938447	     -4.12444918	      3.78194273	      0.95880600	      0.92320028	      0.57101059	      4.03544707	      5.49878869	    -15.02483060	     19.46912616	     19.46912616	     19.25257735	     -3.05324393	     -0.79304603	     29.36774082	     -9.93922022	      2.40637206	     30.08723991	     30.08723991	     10.26016397	    -15.34598835	     13.79595193	    -10.27358055	      5.88081949	      2.60397435	     37.27712792	    -16.09530092	    -15.71581898	     49.19963626	     45.81224956	      0.00000000	      0.00000000	    -16.76736175	     -8.40928768	     10.32287122	     27.63563026	     44.29929984	      0.00000000	      0.00000000
     41.54135714	     -1.68779988	     -4.21232822	      4.18351393	      0.95740013	      0.92318949	      0.56903464	      3.59492994	      5.54543246	    -15.59328970	     18.56283994	     18.56283994	     18.94659519	     -2.51913770	     -1.61951280	     29.36740449	     -9.61952037	      2.41495496	     28.08680252	     28.08680252	      8.15641245	    -14.34776237	     10.40041787	    -10.12191786	      5.87799632	      3.11713061	     37.95882047	    -17.22488120	    -13.18367441	     54.33811166	     45.51870709	      0.00000000	      0.00000000	    -17.83932708	     -8.80182515	     10.08290870	     29.56963645	     44.39202845	      0.00000000	      0.00000000
     41.56042857	     -1.91610064	     -4.26365362	      4.58675515	      0.95626076	      0.92317999	      0.56702920	      3.04373977	      5.61882120	    -15.93585357	     17.64200566	     17.64200566	     18.87417106	     -2.24895386	     -1.53132553	     29.28609006	     -9.30025995	      2.31616821	     26.58353139	     26.58353139	      7.39259466	    -13.03685484	     10.29828939	     -9.94408016	      5.77974668	      3.07815655	     40.05754599	    -17.10246237	    -12.91061590	     56.03592991	     45.45911440	      0.00000000	      0.00000000	    -18.27563801	     -8.89799201	     10.13669409	     29.51017031	     44.39417579	      0.00000000	      0.00000000
